HIERARCHY
ROOT SpineBase
{
  OFFSET 0.000000 0.000000 0.000000
  CHANNELS 6 Xposition Yposition Zposition Zrotation Xrotation Yrotation
  JOINT SpineMid
  {
    OFFSET 0.000000 28.950502 0.000000
    CHANNELS 3 Zrotation Xrotation Yrotation
    JOINT SpineShoulder
    {
      OFFSET 0.075503 21.546675 -0.786000
      CHANNELS 3 Zrotation Xrotation Yrotation
      JOINT Neck
      {
        OFFSET 0.048118 7.146624 -0.584755
        CHANNELS 3 Zrotation Xrotation Yrotation
        JOINT Head
        {
          OFFSET -3.397138 13.328262 -1.407845
          CHANNELS 3 Zrotation Xrotation Yrotation
          End Site
          {
            OFFSET 0 0 0
          }
        }
      }
      JOINT ShoulderLeft
      {
        OFFSET -17.420804 -2.933136 5.902591
        CHANNELS 3 Zrotation Xrotation Yrotation
        JOINT ElbowLeft
        {
          OFFSET -0.636087 -26.763633 0.571663
          CHANNELS 3 Zrotation Xrotation Yrotation
          JOINT WristLeft
          {
            OFFSET 0.640420 -21.443044 -5.727429
            CHANNELS 3 Zrotation Xrotation Yrotation
            JOINT HandLeft
            {
              OFFSET 0.345872 -4.368244 -1.683809
              CHANNELS 3 Zrotation Xrotation Yrotation
              JOINT HandTipLeft
              {
                OFFSET 0.564649 -6.320597 -1.147713
                CHANNELS 3 Zrotation Xrotation Yrotation
                End Site
                {
                  OFFSET 0 0 0
                }
              }
              JOINT ThumbLeft
              {
                OFFSET -2.544001 -1.727930 -1.854827
                CHANNELS 3 Zrotation Xrotation Yrotation
                End Site
                {
                  OFFSET 0 0 0
                }
              }
            }
          }
        }
      }
      JOINT ShoulderRight
      {
        OFFSET 14.534735 -2.840167 -8.272752
        CHANNELS 3 Zrotation Xrotation Yrotation
        JOINT ElbowRight
        {
          OFFSET 7.666083 -24.722712 1.604806
          CHANNELS 3 Zrotation Xrotation Yrotation
          JOINT WristRight
          {
            OFFSET -1.695313 -21.433231 -5.502986
            CHANNELS 3 Zrotation Xrotation Yrotation
            JOINT HandRight
            {
              OFFSET -2.187740 -5.619979 -1.943952
              CHANNELS 3 Zrotation Xrotation Yrotation
              JOINT HandTipRight
              {
                OFFSET -0.673428 -3.683421 -0.921417
                CHANNELS 3 Zrotation Xrotation Yrotation
                End Site
                {
                  OFFSET 0 0 0
                }
              }
              JOINT ThumbRight
              {
                OFFSET -3.047259 -0.447585 -0.536109
                CHANNELS 3 Zrotation Xrotation Yrotation
                End Site
                {
                  OFFSET 0 0 0
                }
              }
            }
          }
        }
      }
    }
  }
  JOINT HipLeft
  {
    OFFSET -6.517839 0.451833 -0.566164
    CHANNELS 3 Zrotation Xrotation Yrotation
    JOINT KneeLeft
    {
      OFFSET 1.486453 -28.893344 4.484711
      CHANNELS 3 Zrotation Xrotation Yrotation
      JOINT AnkleLeft
      {
        OFFSET 4.194605 -33.448125 6.005701
        CHANNELS 3 Zrotation Xrotation Yrotation
        JOINT FootLeft
        {
          OFFSET -1.217217 -6.822174 -7.224381
          CHANNELS 3 Zrotation Xrotation Yrotation
          End Site
          {
            OFFSET 0 0 0
          }
        }
      }
    }
  }
  JOINT HipRight
  {
    OFFSET 7.004775 1.192003 -6.205557
    CHANNELS 3 Zrotation Xrotation Yrotation
    JOINT KneeRight
    {
      OFFSET 4.851402 -28.252188 2.898963
      CHANNELS 3 Zrotation Xrotation Yrotation
      JOINT AnkleRight
      {
        OFFSET 0.191407 -33.715275 7.493468
        CHANNELS 3 Zrotation Xrotation Yrotation
        JOINT FootRight
        {
          OFFSET -2.960204 -7.706162 -4.766398
          CHANNELS 3 Zrotation Xrotation Yrotation
          End Site
          {
            OFFSET 0 0 0
          }
        }
      }
    }
  }
}
MOTION
Frames: 6
Frame Time: 0.033333
-36.782290 76.231815 337.207365 -15.606700 21.292002 -45.034319 0.741917 0.945419 47.632257 1.610763 -1.576236 -0.429572 -26.941488 -19.151257 -15.350430 0.000000 0.000000 0.000000 -34.797225 44.890477 13.557898 77.710484 46.081005 22.879698 -74.613963 36.605800 -23.559651 37.071912 -7.692874 22.089259 0.000000 0.000000 0.000000 0.000000 0.000000 0.000000 -27.677881 15.958758 12.688495 -61.891359 35.379444 24.976591 16.167853 -34.124930 -18.344981 22.398587 -8.809727 0.000772 0.000000 0.000000 0.000000 0.000000 0.000000 0.000000 61.269463 -15.335695 54.797753 -9.033894 25.641096 1.286018 -8.000670 34.136896 1.182351 0.000000 0.000000 0.000000 54.832732 -5.842337 48.776652 -16.866798 28.106375 5.803708 2.638190 25.924371 -14.311266 0.000000 0.000000 0.000000
-39.200888 76.440634 342.476344 -18.247119 16.585864 -36.739509 1.141417 0.590258 38.889693 1.279746 1.110521 -0.384504 -22.633335 -18.655732 -13.694982 0.000000 0.000000 0.000000 -35.595298 45.731296 16.833637 75.412814 35.687698 27.047189 -73.809896 18.473131 -17.632215 23.359947 -4.267680 7.703544 0.000000 0.000000 0.000000 0.000000 0.000000 0.000000 -26.308437 20.212293 17.004380 -48.439209 27.591931 9.774418 34.677750 -24.968507 -4.809530 12.597045 -13.444029 1.582462 0.000000 0.000000 0.000000 0.000000 0.000000 0.000000 54.509407 -12.206321 44.517227 -11.585784 18.541014 0.774432 -18.677456 31.935210 13.207600 0.000000 0.000000 0.000000 50.726872 -2.359733 39.786885 -19.982888 23.834674 4.095553 2.805509 30.216767 -15.276657 0.000000 0.000000 0.000000
-39.478059 76.213729 346.987019 -18.503880 12.682698 -25.558642 1.314607 0.305481 27.053765 -0.378153 0.848126 -0.774217 -17.663132 -15.550559 -10.400303 0.000000 0.000000 0.000000 -38.483938 46.170926 20.703894 71.580554 24.606013 28.956067 -67.178355 -7.254437 -15.564844 11.482048 13.505475 1.685238 0.000000 0.000000 0.000000 0.000000 0.000000 0.000000 -27.806802 25.259200 21.873120 -39.056584 17.525635 -0.560440 40.142946 -28.111836 -2.504898 7.462850 -1.348023 1.057226 0.000000 0.000000 0.000000 0.000000 0.000000 0.000000 46.554029 -13.618463 33.105702 -11.528845 13.150738 0.090079 -31.696069 28.035586 27.512361 0.000000 0.000000 0.000000 47.358737 -4.710554 29.720947 -21.967643 20.700159 2.904728 1.806982 30.070881 -13.631166 0.000000 0.000000 0.000000
-38.192668 76.392681 350.744582 -17.296464 10.019236 -6.854039 1.373662 -0.957147 7.711198 -1.283682 0.856493 -0.847065 -15.051877 -12.606960 -8.110535 0.000000 0.000000 0.000000 -40.929154 43.484636 20.976020 66.480742 17.292341 27.174594 -63.972886 -34.399512 -20.537475 6.784754 38.900398 4.343358 0.000000 0.000000 0.000000 0.000000 0.000000 0.000000 -32.595760 28.629923 25.650550 -31.473636 6.562670 -7.361222 43.595175 -17.496962 -2.125663 -3.376636 -5.125370 1.545782 0.000000 0.000000 0.000000 0.000000 0.000000 0.000000 35.639878 -18.241436 14.918624 -10.595204 8.492148 -0.485422 -35.433674 24.574142 31.263947 0.000000 0.000000 0.000000 40.037168 -13.762668 13.815470 -19.944696 15.969453 1.639152 -3.398384 26.985334 -8.358741 0.000000 0.000000 0.000000
-35.591514 76.206235 353.681123 -14.772780 7.938038 10.117931 0.948937 -1.906169 -9.723448 -1.990574 0.935496 -0.790639 -13.377776 -9.905645 -6.184399 0.000000 0.000000 0.000000 -44.072244 41.737062 20.977782 61.190412 11.843935 25.683538 -53.867679 -43.377499 -19.906749 0.107186 46.238567 8.446171 0.000000 0.000000 0.000000 0.000000 0.000000 0.000000 -40.851306 27.880407 26.141875 -24.221203 -1.487309 -7.357072 43.203378 -2.492925 -4.142486 -5.679967 -13.893760 1.545221 0.000000 0.000000 0.000000 0.000000 0.000000 0.000000 24.189519 -19.139462 -3.779377 -8.774540 7.002195 -0.565091 -36.326778 22.930668 30.878934 0.000000 0.000000 0.000000 28.421086 -20.078554 -3.775388 -15.538161 13.202251 1.021841 -6.334452 23.560873 -5.324596 0.000000 0.000000 0.000000
-32.488055 75.860244 356.069286 -11.542331 5.805086 23.854598 0.022633 -2.481437 -23.841409 -2.855410 1.026594 -0.701783 -11.267005 -3.629365 -2.628002 0.000000 0.000000 0.000000 -45.145959 39.835846 20.043248 57.518215 15.627210 22.791662 -48.299317 -41.142622 -17.993248 -3.815956 38.473610 8.165385 0.000000 0.000000 0.000000 0.000000 0.000000 0.000000 -48.141415 28.283301 28.022631 -21.257729 -10.614467 -10.613911 40.258429 7.318774 -5.617982 -2.217964 -13.962756 1.633295 0.000000 0.000000 0.000000 0.000000 0.000000 0.000000 14.801659 -15.262040 -20.058946 -7.003554 3.857361 -0.656039 -28.900884 19.747820 24.811476 0.000000 0.000000 0.000000 16.205138 -20.159821 -20.543814 -10.355501 11.225526 0.760966 -8.629378 19.124567 -2.829450 0.000000 0.000000 0.000000
